<?xml version="1.0" standalone="no"?><!DOCTYPE svg PUBLIC "-//W3C//DTD SVG 1.1//EN" "http://www.w3.org/Graphics/SVG/1.1/DTD/svg11.dtd"><svg t="1779948675492" class="icon" viewBox="0 0 1024 1024" version="1.1" xmlns="http://www.w3.org/2000/svg" p-id="18861" xmlns:xlink="http://www.w3.org/1999/xlink" width="200" height="200"><path d="M489.088 911.616c-232.096 0-420.896-188.8-420.896-420.896s188.8-420.992 420.896-420.992 420.896 188.8 420.896 420.896-188.8 420.992-420.896 420.992z m0-784.032c-200.192 0-363.104 162.912-363.104 363.104s162.912 363.104 363.104 363.104 363.104-162.912 363.104-363.104S689.28 127.584 489.088 127.584zM136.512 885.696c-0.704 0-1.408 0-2.208-0.096-71.488-5.312-103.008-35.008-116.896-59.008-70.688-122.496 147.008-336.288 387.808-475.296s534.784-220.704 605.504-98.208c15.392 26.592 25.088 73.696-15.904 147.2a28.928 28.928 0 1 1-50.592-28.192c21.696-38.816 27.488-70.816 16.288-90.112-37.696-65.408-270.912-28.192-526.496 119.296C178.624 548.992 29.824 732.384 67.616 797.696c12.416 21.6 45.504 28.288 71.008 30.208a28.96 28.96 0 0 1-2.112 57.792z m369.376 28.608c-126.112 0-224.896-184.896-224.896-420.992s98.816-420.896 224.896-420.896a28.896 28.896 0 0 1 0 57.792c-40.192 0-81.312 36-112.704 98.816-35.008 70.112-54.4 163.904-54.4 264.192s19.296 194.112 54.4 264.192c31.392 62.784 72.512 98.784 112.704 98.784 16 0 28.896 12.992 28.896 28.896a28.992 28.992 0 0 1-28.896 29.216z m-33.504 0a28.896 28.896 0 0 1 0-57.792c40.192 0 81.312-36 112.704-98.784 35.008-70.112 54.4-163.904 54.4-264.192s-19.296-194.112-54.4-264.192c-31.392-62.816-72.512-98.816-112.704-98.816a28.896 28.896 0 0 1 0-57.792c126.112 0 224.896 184.896 224.896 420.896s-98.784 420.704-224.896 420.704zM97.088 490.688h784m0 28.928h-784a28.896 28.896 0 0 1 0-57.792h784a28.896 28.896 0 0 1 0 57.792zM165.312 697.088h647.712m-0.032 28.928H165.28a28.896 28.896 0 0 1 0-57.792h647.712a28.896 28.896 0 0 1 0 57.792zM165.312 284.288h647.712m-0.032 28.896H165.28a28.896 28.896 0 0 1 0-57.792h647.712a28.896 28.896 0 0 1 0 57.792z" p-id="18862"></path></svg>