<?xml version="1.0" standalone="no"?><!DOCTYPE svg PUBLIC "-//W3C//DTD SVG 1.1//EN" "http://www.w3.org/Graphics/SVG/1.1/DTD/svg11.dtd"><svg t="1780109863826" class="icon" viewBox="0 0 1024 1024" version="1.1" xmlns="http://www.w3.org/2000/svg" p-id="5232" xmlns:xlink="http://www.w3.org/1999/xlink" width="200" height="200"><path d="M789.02272 427.97056a29.10208 29.10208 0 0 1 29.05088 27.3408l0.0512 1.77152c0 13.312-0.4096 26.42944-1.18784 39.3216 81.7664-8.02816 131.36896 20.55168 131.36896 87.37792 0 67.1744-75.29472 120.24832-220.81536 169.24672-1.06496 0.3584-2.1504 0.65536-3.21536 0.88064a316.66176 316.66176 0 0 1-85.62688 71.82336l169.7792-0.01024a29.10208 29.10208 0 0 1 0 58.20416h-79.5648l-2.89792 14.5408a90.51136 90.51136 0 0 1-88.75008 72.76544H261.75488a90.51136 90.51136 0 0 1-88.75008-72.7552l-2.9184-14.56128H90.54208a29.10208 29.10208 0 1 1 0-58.19392H260.3008C144.36352 759.296 82.6368 627.06688 80.896 464.25088l-0.04096-7.168a29.10208 29.10208 0 0 1 29.10208-29.11232h679.07584zM669.51168 883.92704H229.44768l0.63488 3.13344a32.3072 32.3072 0 0 0 29.82912 25.9072l1.8432 0.06144h375.45984a32.3072 32.3072 0 0 0 31.26272-24.17664l0.4096-1.792 0.62464-3.13344z m89.7024-397.73184H139.74528c9.54368 195.09248 116.19328 327.8336 309.73952 327.8336 193.536 0 300.19584-132.74112 309.72928-327.8336z m52.26496 69.45792l-1.2288 0.18432c-7.07584 42.36288-18.87232 81.7152-35.25632 117.26848 77.59872-32.68608 115.0976-64.17408 115.0976-89.32352 0-26.66496-19.47648-36.6592-78.61248-28.12928z" fill="#050505" p-id="5233"></path><path d="M329.60512 114.83136a29.10208 29.10208 0 1 1 43.66336 38.5024c-23.63392 26.79808-29.05088 52.24448-17.89952 80.7936l1.08544 2.67264c21.68832 51.16928 10.60864 102.21568-30.64832 148.51072a29.10208 29.10208 0 1 1-43.45856-38.72768c26.18368-29.37856 32.57344-56.12544 21.56544-84.48l-1.04448-2.58048c-21.5552-50.86208-12.04224-100.7104 26.73664-144.6912zM581.7344 114.83136a29.10208 29.10208 0 0 1 43.65312 38.5024c-23.63392 26.79808-29.05088 52.24448-17.90976 80.7936l1.09568 2.67264c21.68832 51.16928 10.5984 102.21568-30.64832 148.51072a29.10208 29.10208 0 0 1-43.45856-38.72768c26.18368-29.37856 32.57344-56.12544 21.56544-84.48l-1.04448-2.58048c-21.5552-50.86208-12.04224-100.7104 26.73664-144.6912zM450.304 66.048a29.10208 29.10208 0 1 1 50.72896 28.52864c-21.05344 37.44768-23.82848 77.38368-8.00768 121.99936l1.49504 4.06528c25.00608 66.2528 7.75168 124.79488-49.3568 168.42752a29.10208 29.10208 0 0 1-35.33824-46.24384c36.01408-27.51488 45.6704-58.20416 31.26272-98.83648l-1.024-2.78528c-23.40864-61.99296-20.11136-121.18016 10.24-175.1552z" fill="#050505" p-id="5234"></path></svg>