<?xml version="1.0" standalone="no"?><!DOCTYPE svg PUBLIC "-//W3C//DTD SVG 1.1//EN" "http://www.w3.org/Graphics/SVG/1.1/DTD/svg11.dtd"><svg t="1779940736266" class="icon" viewBox="0 0 1024 1024" version="1.1" xmlns="http://www.w3.org/2000/svg" p-id="11810" xmlns:xlink="http://www.w3.org/1999/xlink" width="200" height="200"><path d="M514.076981 278.079796v-44.184597c0-15.745857-17.60284-27.765747-33.350696-27.765747s-35.09668 12.01989-35.09668 27.765747v44.162598h-38.505649v-44.162598c0-15.745857-18.757829-28.456741-34.479686-28.456741-15.759856 0-33.952691 12.709884-33.952691 28.456741v44.162598h-57.808473V162.964845h-18.966827V62.745758c0-15.672857-17.936837-28.443741-33.647694-28.443741-15.764856 0-34.823683 12.776884-34.823683 28.443741v100.228087h-20.187816V287.57671h1.587986c-43.552603 18.452832-74.269323 61.534439-74.269323 111.515984v188.102286c0 38.39965 18.219834 72.656338 46.381577 94.872135 0 0.233998-0.039 0.529995-0.039 0.741994V902.971103c0 9.098917 1.020991 17.965836 2.949974 26.496758C162.053188 983.41137 210.572746 1024 268.119222 1024H466.310416c57.514476 0 106.027034-40.59363 118.216923-94.533139a120.288904 120.288904 0 0 0 2.955973-26.496758V682.809109c0-0.212998-0.028-0.507995-0.027999-0.741994 28.161743-22.214798 46.343578-56.472485 46.343577-94.872135V399.087694c0-66.066398-53.72751-120.205905-119.722909-121.007898z m32.399705 277.525472H186.754963V391.315765h359.721723V555.604268z m276.479481-443.025964c30.337724 31.907709 54.262506 68.289378 71.775346 109.148006 17.51184 40.857628 27.066753 83.918235 28.664739 129.181823 0.311997 6.345942-1.926982 11.794893-6.722939 16.346851-4.067963 3.859965-8.75692 5.837947-14.069872 5.934946l-1.427987-0.036c-5.864947-0.150999-10.839901-2.375978-14.930864-6.679939-3.863965-4.062963-5.845947-8.74792-5.939946-14.053872-1.430987-39.886637-9.86791-77.87029-25.312769-113.946962-15.442859-36.079671-36.523667-68.171379-63.245424-96.275123-26.722757-28.104744-57.719474-50.785537-92.991153-68.04738-35.270679-17.262843-72.806337-27.629748-112.602974-31.104716-5.299952-0.367997-9.87991-2.584976-13.743874-6.64994-4.553959-4.789956-6.513941-10.347906-5.873947-16.667848 0.369997-5.294952 2.587976-9.87191 6.655939-13.730875 4.794956-4.551959 10.357906-6.506941 16.683848-5.869946 45.253588 4.010963 87.8272 15.777856 127.720837 35.296678 39.892637 19.517822 75.011317 45.233588 105.36104 77.153297zM669.378566 257.358985c13.429878 14.125871 22.321797 30.625721 26.676757 49.507549 0.846992 3.823965 0.727993 7.562931-0.347997 11.217898a20.930809 20.930809 0 0 1-5.767947 9.417914c-2.766975 2.625976-6.064945 4.36396-9.89391 5.205953-1.908983 0.427996-3.735966 0.619994-5.47995 0.575994-5.859947-0.149999-10.877901-2.419978-15.047863-6.805938-2.776975-2.920973-4.554958-6.176944-5.336951-9.765911-2.719975-11.476895-8.055927-21.397805-16.012855-29.764728-8.033927-8.449923-17.711839-14.32087-29.034735-17.61284-3.935964-1.206989-7.179935-3.149971-9.729911-5.831947-5.633949-5.923946-7.359933-12.859883-5.174953-20.80281 1.041991-3.775966 2.944973-6.976936 5.711948-9.602913 5.928946-5.626949 12.869883-7.351933 20.82081-5.169953 18.891828 5.403951 35.09168 15.209861 48.599557 29.415732l0.018 0.016z" p-id="11811"></path><path d="M740.387919 190.535594c18.68783 19.653821 33.620694 41.862619 44.798592 66.625393 11.176898 24.766774 17.756838 50.959536 19.73382 78.579284 0.538995 6.746939-1.669985 12.471886-6.62094 17.171844-3.733966 3.543968-8.148926 5.48795-13.243879 5.832946-1.11699 0.133999-1.835983 0.190998-2.14798 0.173999-5.863947-0.151999-10.840901-2.376978-14.932864-6.679939-3.625967-3.813965-5.611949-8.265925-5.957946-13.355879-1.641985-22.540795-7.037936-43.996599-16.186853-64.357413-9.149917-20.364814-21.327806-38.541649-36.535667-54.536503-15.209861-15.997854-32.756702-29.080735-52.64152-39.255643-19.884819-10.173907-41.052626-16.656848-63.501421-19.454822-5.059954-0.595995-9.369915-2.764975-12.926883-6.504941-4.713957-4.957955-6.62294-10.786902-5.730947-17.487841 0.595995-5.053954 2.767975-9.357915 6.51294-12.911882 4.962955-4.710957 10.797902-6.61994 17.503841-5.726948 27.42975 3.30797 53.273515 11.217898 77.534293 23.721784 24.259779 12.508886 45.695584 28.54974 64.302414 48.119561l0.042 0.047z" p-id="11812"></path></svg>