<?xml version="1.0" standalone="no"?><!DOCTYPE svg PUBLIC "-//W3C//DTD SVG 1.1//EN" "http://www.w3.org/Graphics/SVG/1.1/DTD/svg11.dtd"><svg t="1780120339847" class="icon" viewBox="0 0 1024 1024" version="1.1" xmlns="http://www.w3.org/2000/svg" p-id="7577" xmlns:xlink="http://www.w3.org/1999/xlink" width="200" height="200"><path d="M524.928 612.544c-167.616 0-304-137.408-304-306.304S357.312 0 524.928 0s304 137.408 304 306.304-136.384 306.24-304 306.24z m0-548.544c-132.352 0-240 108.672-240 242.304s107.648 242.304 240 242.304c132.288 0 240-108.672 240-242.304S657.28 64 524.928 64z" p-id="7578"></path><path d="M768.896 628.224a31.488 31.488 0 0 1-17.088-4.928 427.328 427.328 0 0 0-100.8-46.592 31.936 31.936 0 1 1 19.008-61.056 492.352 492.352 0 0 1 115.968 53.504 32 32 0 0 1-17.088 59.072zM64 1024a32 32 0 0 1-32-32c0-220.224 139.84-411.712 347.904-476.352a32 32 0 0 1 19.008 61.12C217.728 633.088 96 799.936 96 992a32 32 0 0 1-32 32zM960 914.304a32 32 0 0 1-32-32v-109.76a32 32 0 0 1 64 0v109.76a32 32 0 0 1-32 32z" p-id="7579"></path><path d="M960 914.304H587.264a32 32 0 0 1 0-64H960a32 32 0 0 1 0 64z" p-id="7580"></path><path d="M538.176 907.008a32 32 0 0 1-21.952-55.232l108.416-102.464a32 32 0 1 1 43.968 46.528l-108.48 102.464a31.872 31.872 0 0 1-21.952 8.704z" p-id="7581"></path><path d="M646.656 1024a32 32 0 0 1-23.488-10.24l-108.416-116.992a32 32 0 1 1 46.976-43.52l108.48 116.992a32 32 0 0 1-23.552 53.76z" p-id="7582"></path></svg>