<?xml version="1.0" standalone="no"?><!DOCTYPE svg PUBLIC "-//W3C//DTD SVG 1.1//EN" "http://www.w3.org/Graphics/SVG/1.1/DTD/svg11.dtd"><svg t="1779940703924" class="icon" viewBox="0 0 1024 1024" version="1.1" xmlns="http://www.w3.org/2000/svg" p-id="10701" xmlns:xlink="http://www.w3.org/1999/xlink" width="200" height="200"><path d="M534.4 149.333333a39.253333 39.253333 0 0 0 0 78.293334 192 192 0 0 1 196.266667 185.813333 39.253333 39.253333 0 1 0 78.293333 0A269.653333 269.653333 0 0 0 534.4 149.333333z" fill="#5B5B5B" p-id="10702"></path><path d="M486.826667 524.586667L576 435.413333a61.44 61.44 0 1 0-55.466667-55.253333L431.573333 469.333333 213.333333 251.733333a74.453333 74.453333 0 0 0-124.373333 33.28 471.466667 471.466667 0 0 0-13.866667 161.493334 463.786667 463.786667 0 0 0 132.48 283.52l-81.92 197.12a56.96 56.96 0 0 0 52.693334 78.72h215.253333a56.746667 56.746667 0 0 0 52.906667-76.586667L418.986667 853.333333a454.826667 454.826667 0 0 0 78.506666 14.293334 470.826667 470.826667 0 0 0 161.92-14.08 74.453333 74.453333 0 0 0 33.066667-124.373334z m144.64 256a385.066667 385.066667 0 0 1-128 9.6A389.546667 389.546667 0 0 1 153.386667 439.893333a395.733333 395.733333 0 0 1 9.813333-128zM362.666667 926.72H210.56l59.733333-144.213333a446.72 446.72 0 0 0 50.986667 31.573333zM593.28 13.866667a360.32 360.32 0 0 0-123.946667 21.333333 38.613333 38.613333 0 0 0-21.333333 21.333333A38.186667 38.186667 0 0 0 446.08 85.333333a39.253333 39.253333 0 0 0 50.133333 23.466667 281.813333 281.813333 0 0 1 97.066667-17.066667 275.84 275.84 0 0 1 278.826667 272.64 265.813333 265.813333 0 0 1-20.053334 101.333334 39.253333 39.253333 0 0 0 21.333334 50.986666 38.613333 38.613333 0 0 0 14.72 2.986667 39.04 39.04 0 0 0 36.266666-24.32 343.68 343.68 0 0 0 25.6-130.986667A354.133333 354.133333 0 0 0 593.28 13.866667z" fill="#5B5B5B" p-id="10703"></path></svg>